<svg preserveAspectRatio="none" width="100%" height="100%" overflow="visible" style="display: block;" viewBox="0 0 18 18" fill="none" xmlns="http://www.w3.org/2000/svg">
<g id="Frame">
<path id="Vector" d="M14.25 10.5C15.3675 9.405 16.5 8.0925 16.5 6.375C16.5 5.28098 16.0654 4.23177 15.2918 3.45818C14.5182 2.6846 13.469 2.25 12.375 2.25C11.055 2.25 10.125 2.625 9 3.75C7.875 2.625 6.945 2.25 5.625 2.25C4.53098 2.25 3.48177 2.6846 2.70818 3.45818C1.9346 4.23177 1.5 5.28098 1.5 6.375C1.5 8.1 2.625 9.4125 3.75 10.5L9 15.75L14.25 10.5Z" stroke="var(--stroke-0, black)" stroke-width="1.5" stroke-linecap="round" stroke-linejoin="round"/>
<path id="Vector_2" d="M2.415 9H7.125L7.5 8.25L9 11.625L10.5 6.375L11.625 9H15.5775" stroke="var(--stroke-0, black)" stroke-width="1.5" stroke-linecap="round" stroke-linejoin="round"/>
</g>
</svg>
