<svg preserveAspectRatio="none" width="100%" height="100%" overflow="visible" style="display: block;" viewBox="0 0 18 18" fill="none" xmlns="http://www.w3.org/2000/svg">
<g id="Frame">
<path id="Vector" d="M8.25 1.5V3" stroke="var(--stroke-0, black)" stroke-width="1.5" stroke-linecap="round" stroke-linejoin="round"/>
<path id="Vector_2" d="M3.75 1.5V3" stroke="var(--stroke-0, black)" stroke-width="1.5" stroke-linecap="round" stroke-linejoin="round"/>
<path id="Vector_3" d="M3.75 2.25H3C2.60218 2.25 2.22064 2.40804 1.93934 2.68934C1.65804 2.97064 1.5 3.35218 1.5 3.75V6.75C1.5 7.94347 1.97411 9.08807 2.81802 9.93198C3.66193 10.7759 4.80653 11.25 6 11.25C7.19347 11.25 8.33807 10.7759 9.18198 9.93198C10.0259 9.08807 10.5 7.94347 10.5 6.75V3.75C10.5 3.35218 10.342 2.97064 10.0607 2.68934C9.77936 2.40804 9.39782 2.25 9 2.25H8.25" stroke="var(--stroke-0, black)" stroke-width="1.5" stroke-linecap="round" stroke-linejoin="round"/>
<path id="Vector_4" d="M6 11.25C6 12.4435 6.47411 13.5881 7.31802 14.432C8.16193 15.2759 9.30653 15.75 10.5 15.75C11.6935 15.75 12.8381 15.2759 13.682 14.432C14.5259 13.5881 15 12.4435 15 11.25V9" stroke="var(--stroke-0, black)" stroke-width="1.5" stroke-linecap="round" stroke-linejoin="round"/>
<path id="Vector_5" d="M15 9C15.8284 9 16.5 8.32843 16.5 7.5C16.5 6.67157 15.8284 6 15 6C14.1716 6 13.5 6.67157 13.5 7.5C13.5 8.32843 14.1716 9 15 9Z" stroke="var(--stroke-0, black)" stroke-width="1.5" stroke-linecap="round" stroke-linejoin="round"/>
</g>
</svg>
