<svg preserveAspectRatio="none" width="100%" height="100%" overflow="visible" style="display: block;" viewBox="0 0 19 19" fill="none" xmlns="http://www.w3.org/2000/svg">
<g id="Frame">
<path id="Vector" d="M5.19944 12.7059L6.39923 10.1471C6.52966 9.86133 6.72807 9.62006 6.97322 9.4491C7.21836 9.27814 7.50103 9.18392 7.79098 9.1765H16.3975M16.3975 9.1765C16.6419 9.17603 16.8831 9.23733 17.1027 9.35569C17.3222 9.47406 17.5143 9.64634 17.6641 9.85932C17.8139 10.0723 17.9175 10.3203 17.9669 10.5843C18.0164 10.8483 18.0103 11.1213 17.9492 11.3824L16.7174 16.6764C16.6283 17.0572 16.4264 17.3943 16.1439 17.634C15.8613 17.8738 15.5142 18.0026 15.1577 18H3.59972C3.17545 18 2.76855 17.814 2.46855 17.4831C2.16854 17.1521 2 16.7033 2 16.2353V4.76478C2 4.29675 2.16854 3.84789 2.46855 3.51695C2.76855 3.18601 3.17545 3.00008 3.59972 3.00008H6.71917C6.98671 2.99719 7.25064 3.06837 7.4868 3.2071C7.72295 3.34583 7.92379 3.54769 8.07093 3.7942L8.71882 4.85301C8.86448 5.09701 9.06278 5.29729 9.29592 5.43589C9.52906 5.57449 9.78975 5.64707 10.0546 5.64712H14.7978C15.222 5.64712 15.6289 5.83304 15.9289 6.16399C16.2289 6.49493 16.3975 6.94379 16.3975 7.41181V9.1765Z" stroke="var(--stroke-0, black)" stroke-width="1.66667" stroke-linecap="round" stroke-linejoin="round"/>
</g>
</svg>
