<svg preserveAspectRatio="none" width="100%" height="100%" overflow="visible" style="display: block;" viewBox="0 0 10.1731 10.9845" fill="none" xmlns="http://www.w3.org/2000/svg">
<g id="direction right">
<path id="Vector 174 (Stroke)" fill-rule="evenodd" clip-rule="evenodd" d="M0.14541 0.268919C0.37431 -0.0400265 0.791821 -0.0901165 1.07795 0.15704L5.08656 3.6197L9.09518 0.15704C9.3813 -0.0901165 9.79882 -0.0400265 10.0277 0.268919C10.2566 0.577865 10.2102 1.02867 9.9241 1.27583L5.50102 5.0965C5.25872 5.30581 4.91441 5.30581 4.6721 5.0965L0.249025 1.27583C-0.0371009 1.02867 -0.083491 0.577865 0.14541 0.268919Z" fill="var(--fill-0, #20A329)"/>
<path id="Vector 175 (Stroke)" opacity="0.4" fill-rule="evenodd" clip-rule="evenodd" d="M0.14541 5.99992C0.37431 5.69098 0.791821 5.64089 1.07795 5.88804L5.08656 9.3507L9.09518 5.88804C9.3813 5.64089 9.79882 5.69098 10.0277 5.99992C10.2566 6.30887 10.2102 6.75968 9.9241 7.00684L5.50102 10.8275C5.25872 11.0368 4.91441 11.0368 4.6721 10.8275L0.249025 7.00684C-0.0371009 6.75968 -0.083491 6.30887 0.14541 5.99992Z" fill="var(--fill-0, #20A329)"/>
</g>
</svg>
