<svg preserveAspectRatio="none" width="100%" height="100%" overflow="visible" style="display: block;" viewBox="0 0 17.4997 21.5" fill="none" xmlns="http://www.w3.org/2000/svg">
<path id="Vector" d="M14.9894 7.72519L14.2442 7.80977V7.80977L14.9894 7.72519ZM15.4366 11.6653L16.1818 11.5807V11.5807L15.4366 11.6653ZM2.06314 11.6653L1.31792 11.5807L1.31792 11.5807L2.06314 11.6653ZM2.51032 7.72519L3.25554 7.80977L2.51032 7.72519ZM1.19765 13.6221L0.626538 13.136H0.626537L1.19765 13.6221ZM16.3021 13.6221L15.731 14.1083V14.1083L16.3021 13.6221ZM11.0198 3.12366H10.2698C10.2698 3.44424 10.4736 3.72938 10.7769 3.83322L11.0198 3.12366ZM6.47991 3.12366L6.72286 3.83322C7.02615 3.72938 7.22991 3.44424 7.22991 3.12366H6.47991ZM12.4522 19.0132C12.5975 18.6253 12.4009 18.1931 12.0131 18.0477C11.6252 17.9023 11.1929 18.0989 11.0476 18.4868L11.7499 18.75L12.4522 19.0132ZM6.45216 18.4868C6.3068 18.0989 5.87452 17.9023 5.48666 18.0477C5.09879 18.1931 4.9022 18.6253 5.04756 19.0132L5.74986 18.75L6.45216 18.4868ZM14.527 16.75V16H2.97267V16.75V17.5H14.527V16.75ZM14.9894 7.72519L14.2442 7.80977L14.6914 11.7498L15.4366 11.6653L16.1818 11.5807L15.7346 7.64061L14.9894 7.72519ZM2.06314 11.6653L2.80835 11.7498L3.25554 7.80977L2.51032 7.72519L1.76511 7.64061L1.31792 11.5807L2.06314 11.6653ZM1.19765 13.6221L1.76875 14.1083C2.34607 13.4301 2.71014 12.6152 2.80835 11.7498L2.06314 11.6653L1.31792 11.5807C1.25505 12.1346 1.02053 12.6731 0.626538 13.136L1.19765 13.6221ZM15.4366 11.6653L14.6914 11.7498C14.7896 12.6152 15.1537 13.4301 15.731 14.1083L16.3021 13.6221L16.8732 13.136C16.4792 12.6731 16.2447 12.1346 16.1818 11.5807L15.4366 11.6653ZM2.97267 16.75V16C2.31763 16 1.85429 15.676 1.64042 15.2992C1.43395 14.9354 1.437 14.498 1.76875 14.1083L1.19765 13.6221L0.626537 13.136C-0.138734 14.035 -0.162367 15.1616 0.335844 16.0395C0.826654 16.9044 1.79933 17.5 2.97267 17.5V16.75ZM14.527 16.75V17.5C15.7004 17.5 16.6731 16.9044 17.1639 16.0395C17.6621 15.1616 17.6385 14.035 16.8732 13.136L16.3021 13.6221L15.731 14.1083C16.0627 14.498 16.0658 14.9354 15.8593 15.2992C15.6454 15.676 15.1821 16 14.527 16V16.75ZM11.0198 3.12366H11.7698V3.01995H11.0198H10.2698V3.12366H11.0198ZM14.9894 7.72519L15.7346 7.64061C15.4554 5.18026 13.6304 3.22476 11.2628 2.4141L11.0198 3.12366L10.7769 3.83322C12.694 4.48962 14.0412 6.02101 14.2442 7.80977L14.9894 7.72519ZM6.47991 3.12366H7.22991V3.01995H6.47991H5.72991V3.12366H6.47991ZM2.51032 7.72519L3.25554 7.80977C3.45856 6.02101 4.80573 4.48962 6.72286 3.83322L6.47991 3.12366L6.23697 2.4141C3.8693 3.22476 2.04435 5.18026 1.76511 7.64061L2.51032 7.72519ZM8.74986 0.75V1.5C9.5893 1.5 10.2698 2.1805 10.2698 3.01995H11.0198H11.7698C11.7698 1.35208 10.4177 0 8.74986 0V0.75ZM8.74986 0.75V0C7.08199 0 5.72991 1.35208 5.72991 3.01995H6.47991H7.22991C7.22991 2.1805 7.91042 1.5 8.74986 1.5V0.75ZM11.7499 18.75L11.0476 18.4868C10.7248 19.3479 9.83444 20 8.74986 20V20.75V21.5C10.4353 21.5 11.9015 20.4825 12.4522 19.0132L11.7499 18.75ZM8.74986 20.75V20C7.66528 20 6.77488 19.3479 6.45216 18.4868L5.74986 18.75L5.04756 19.0132C5.59821 20.4825 7.06438 21.5 8.74986 21.5V20.75Z" fill="var(--stroke-0, black)"/>
</svg>
