<svg preserveAspectRatio="none" width="100%" height="100%" overflow="visible" style="display: block;" viewBox="0 0 15 19.9708" fill="none" xmlns="http://www.w3.org/2000/svg">
<g id="Icon">
<path fill-rule="evenodd" clip-rule="evenodd" d="M3.75 2.75C3.75 1.23122 4.98122 0 6.5 0H8.5C10.0188 0 11.25 1.23122 11.25 2.75V4.75C11.25 5.16421 10.9142 5.5 10.5 5.5H4.5C4.08579 5.5 3.75 5.16421 3.75 4.75V2.75ZM6.5 1.5C5.80964 1.5 5.25 2.05964 5.25 2.75V4H9.75V2.75C9.75 2.05964 9.19036 1.5 8.5 1.5H6.5Z" fill="var(--fill-0, #8D90A1)"/>
<path fill-rule="evenodd" clip-rule="evenodd" d="M1.98693 2.67877C2.11335 2.61816 2.25371 2.71463 2.25346 2.85483L2.25 4.75001C2.25 5.99265 3.25736 7.00001 4.5 7.00001H10.5C11.7426 7.00001 12.75 5.99265 12.75 4.75001V2.85426C12.75 2.71422 12.8903 2.618 13.0165 2.67855C14.2016 3.24669 15 4.45679 15 5.83546V16.3249C15 18.0357 13.7257 19.4785 12.028 19.6899C9.02096 20.0644 5.97904 20.0644 2.97197 19.6899C1.27431 19.4785 0 18.0357 0 16.3249V5.83545C0 4.45697 0.801611 3.24701 1.98693 2.67877ZM10.5 9.75C10.9142 9.75 11.25 10.0858 11.25 10.5C11.25 10.9142 10.9142 11.25 10.5 11.25H4.5C4.08579 11.25 3.75 10.9142 3.75 10.5C3.75 10.0858 4.08579 9.75 4.5 9.75H10.5ZM9.5 12.75C9.91421 12.75 10.25 13.0858 10.25 13.5C10.25 13.9142 9.91421 14.25 9.5 14.25H4.5C4.08579 14.25 3.75 13.9142 3.75 13.5C3.75 13.0858 4.08579 12.75 4.5 12.75H9.5Z" fill="var(--fill-0, #8D90A1)"/>
</g>
</svg>
